<svg xmlns="http://www.w3.org/2000/svg" viewBox="0 0 549.85 716.5"><defs><style>.cls-1{fill:#926d5a;}.cls-2{fill:#f1dbcb;}.cls-3{fill:#006837;}.cls-4{fill:#cea28b;}</style></defs><title>Cloud</title><g id="Layer_3" data-name="Layer 3"><rect class="cls-1" x="479.91" y="379.35" width="52.12" height="46.27"/><rect class="cls-1" x="479.91" y="333.07" width="52.12" height="46.27"/><rect class="cls-1" x="479.91" y="194.27" width="52.12" height="46.26"/><rect class="cls-1" x="479.91" y="147.99" width="52.12" height="46.27"/><rect class="cls-1" x="427.79" y="425.62" width="52.12" height="46.27"/><rect class="cls-2" x="427.79" y="379.35" width="52.12" height="46.27"/><rect class="cls-2" x="427.79" y="333.07" width="52.12" height="46.27"/><rect class="cls-2" x="427.79" y="286.8" width="52.12" height="46.27"/><rect class="cls-2" x="427.79" y="240.53" width="52.12" height="46.27"/><rect class="cls-1" x="427.79" y="194.27" width="52.12" height="46.26"/><rect class="cls-1" x="427.79" y="147.99" width="52.12" height="46.27"/><rect class="cls-1" x="427.79" y="101.72" width="52.12" height="46.27"/><rect class="cls-1" x="427.79" y="55.45" width="52.12" height="46.27"/><rect class="cls-2" x="375.66" y="564.44" width="52.13" height="46.26"/><rect class="cls-2" x="375.66" y="518.17" width="52.13" height="46.27"/><rect class="cls-2" x="375.66" y="471.89" width="52.13" height="46.27"/><rect class="cls-2" x="375.66" y="425.62" width="52.13" height="46.27"/><rect class="cls-2" x="375.66" y="379.35" width="52.13" height="46.27"/><rect class="cls-2" x="375.66" y="333.07" width="52.13" height="46.27"/><rect class="cls-2" x="375.66" y="286.8" width="52.13" height="46.27"/><rect class="cls-2" x="375.66" y="240.53" width="52.13" height="46.27"/><rect class="cls-1" x="375.66" y="194.27" width="52.13" height="46.26"/><rect class="cls-1" x="375.66" y="147.99" width="52.13" height="46.27"/><rect class="cls-1" x="375.66" y="101.72" width="52.13" height="46.27"/><rect class="cls-1" x="375.66" y="55.45" width="52.13" height="46.27"/><rect class="cls-1" x="375.66" y="9.17" width="52.13" height="46.27"/><rect class="cls-2" x="323.54" y="610.7" width="52.12" height="46.27"/><rect class="cls-2" x="323.54" y="564.44" width="52.12" height="46.26"/><rect class="cls-2" x="323.54" y="518.17" width="52.12" height="46.27"/><rect class="cls-2" x="323.54" y="471.89" width="52.12" height="46.27"/><rect class="cls-2" x="323.54" y="425.62" width="52.12" height="46.27"/><rect class="cls-2" x="323.54" y="379.35" width="52.12" height="46.27"/><rect class="cls-3" x="323.54" y="333.07" width="52.12" height="46.27"/><rect class="cls-2" x="323.54" y="286.8" width="52.12" height="46.27"/><rect class="cls-2" x="323.54" y="240.53" width="52.12" height="46.27"/><rect class="cls-1" x="323.54" y="194.27" width="52.12" height="46.26"/><rect class="cls-1" x="323.54" y="147.99" width="52.12" height="46.27"/><rect class="cls-1" x="323.54" y="101.72" width="52.12" height="46.27"/><rect class="cls-1" x="323.54" y="55.45" width="52.12" height="46.27"/><rect class="cls-1" x="323.54" y="9.17" width="52.12" height="46.27"/><rect class="cls-2" x="271.42" y="656.97" width="52.12" height="46.27"/><rect class="cls-2" x="271.42" y="610.7" width="52.12" height="46.27"/><rect class="cls-4" x="271.42" y="564.44" width="52.12" height="46.26"/><rect class="cls-2" x="271.42" y="518.17" width="52.12" height="46.27"/><rect class="cls-1" x="271.42" y="471.89" width="52.12" height="46.27"/><rect class="cls-1" x="271.42" y="425.62" width="52.12" height="46.27"/><rect class="cls-1" x="271.42" y="379.35" width="52.12" height="46.27"/><rect class="cls-2" x="271.42" y="333.07" width="52.12" height="46.27"/><rect class="cls-2" x="271.42" y="286.8" width="52.12" height="46.27"/><rect class="cls-2" x="271.42" y="240.53" width="52.12" height="46.27"/><rect class="cls-1" x="271.42" y="194.27" width="52.12" height="46.26"/><rect class="cls-1" x="271.42" y="147.99" width="52.12" height="46.27"/><rect class="cls-1" x="271.42" y="101.72" width="52.12" height="46.27"/><rect class="cls-1" x="271.42" y="55.45" width="52.12" height="46.27"/><rect class="cls-1" x="271.42" y="9.17" width="52.12" height="46.27"/><rect class="cls-2" x="219.31" y="656.97" width="52.12" height="46.27"/><rect class="cls-2" x="219.31" y="610.7" width="52.12" height="46.27"/><rect class="cls-4" x="219.31" y="564.44" width="52.12" height="46.26"/><rect class="cls-2" x="219.31" y="518.17" width="52.12" height="46.27"/><rect class="cls-2" x="219.31" y="471.89" width="52.12" height="46.27"/><rect class="cls-2" x="219.31" y="425.62" width="52.12" height="46.27"/><rect class="cls-2" x="219.31" y="379.35" width="52.12" height="46.27"/><rect class="cls-2" x="219.31" y="333.07" width="52.12" height="46.27"/><rect class="cls-2" x="219.31" y="286.8" width="52.12" height="46.27"/><rect class="cls-2" x="219.31" y="240.53" width="52.12" height="46.27"/><rect class="cls-1" x="219.31" y="194.27" width="52.12" height="46.26"/><rect class="cls-1" x="219.31" y="147.99" width="52.12" height="46.27"/><rect class="cls-1" x="219.31" y="101.72" width="52.12" height="46.27"/><rect class="cls-1" x="219.31" y="55.45" width="52.12" height="46.27"/><rect class="cls-1" x="219.31" y="9.17" width="52.12" height="46.27"/><rect class="cls-2" x="167.19" y="656.97" width="52.12" height="46.27"/><rect class="cls-2" x="167.19" y="610.7" width="52.12" height="46.27"/><rect class="cls-4" x="167.19" y="564.44" width="52.12" height="46.26"/><rect class="cls-2" x="167.19" y="518.17" width="52.12" height="46.27"/><rect class="cls-2" x="167.19" y="471.89" width="52.12" height="46.27"/><rect class="cls-2" x="167.19" y="425.62" width="52.12" height="46.27"/><rect class="cls-2" x="167.19" y="379.35" width="52.12" height="46.27"/><rect class="cls-2" x="167.19" y="333.07" width="52.12" height="46.27"/><rect class="cls-2" x="167.19" y="286.8" width="52.12" height="46.27"/><rect class="cls-2" x="167.19" y="240.53" width="52.12" height="46.27"/><rect class="cls-2" x="167.19" y="194.27" width="52.12" height="46.26"/><rect class="cls-1" x="167.19" y="147.99" width="52.12" height="46.27"/><rect class="cls-1" x="167.19" y="101.72" width="52.12" height="46.27"/><rect class="cls-1" x="167.19" y="55.45" width="52.12" height="46.27"/><rect class="cls-1" x="167.19" y="9.17" width="52.12" height="46.27"/><rect class="cls-2" x="115.07" y="610.7" width="52.12" height="46.27"/><rect class="cls-2" x="115.07" y="564.44" width="52.12" height="46.26"/><rect class="cls-2" x="115.07" y="518.17" width="52.12" height="46.27"/><rect class="cls-2" x="115.07" y="471.89" width="52.12" height="46.27"/><rect class="cls-2" x="115.07" y="425.62" width="52.12" height="46.27"/><rect class="cls-2" x="115.07" y="379.35" width="52.12" height="46.27"/><rect class="cls-3" x="115.07" y="333.07" width="52.12" height="46.27"/><rect class="cls-2" x="115.07" y="286.8" width="52.12" height="46.27"/><rect class="cls-2" x="115.07" y="240.53" width="52.12" height="46.27"/><rect class="cls-2" x="115.07" y="194.27" width="52.12" height="46.26"/><rect class="cls-1" x="115.07" y="147.99" width="52.12" height="46.27"/><rect class="cls-1" x="115.07" y="101.72" width="52.12" height="46.27"/><rect class="cls-1" x="115.07" y="55.45" width="52.12" height="46.27"/><rect class="cls-1" x="115.07" y="9.17" width="52.12" height="46.27"/><rect class="cls-2" x="62.94" y="518.17" width="52.13" height="46.27"/><rect class="cls-2" x="62.94" y="471.89" width="52.13" height="46.27"/><rect class="cls-2" x="62.94" y="425.62" width="52.13" height="46.27"/><rect class="cls-2" x="62.94" y="379.35" width="52.13" height="46.27"/><rect class="cls-2" x="62.94" y="333.07" width="52.13" height="46.27"/><rect class="cls-2" x="62.94" y="286.8" width="52.13" height="46.27"/><rect class="cls-1" x="62.94" y="240.53" width="52.13" height="46.27"/><rect class="cls-1" x="62.94" y="194.27" width="52.13" height="46.26"/><rect class="cls-1" x="62.94" y="147.99" width="52.13" height="46.27"/><rect class="cls-1" x="62.94" y="101.72" width="52.13" height="46.27"/><rect class="cls-1" x="62.94" y="55.45" width="52.13" height="46.27"/><rect class="cls-1" x="62.94" y="9.17" width="52.13" height="46.27"/><rect class="cls-1" x="10.83" y="425.62" width="52.12" height="46.27"/><rect class="cls-1" x="10.83" y="379.35" width="52.12" height="46.27"/><rect class="cls-1" x="10.83" y="333.07" width="52.12" height="46.27"/><rect class="cls-1" x="10.83" y="286.8" width="52.12" height="46.27"/><rect class="cls-1" x="10.83" y="240.53" width="52.12" height="46.27"/><rect class="cls-1" x="10.83" y="194.27" width="52.12" height="46.26"/><rect class="cls-1" x="10.83" y="147.99" width="52.12" height="46.27"/><rect class="cls-1" x="10.83" y="101.72" width="52.12" height="46.27"/><rect class="cls-1" x="10.83" y="55.45" width="52.12" height="46.27"/></g></svg>