<svg xmlns="http://www.w3.org/2000/svg" viewBox="0 0 681.52 987.29"><defs><style>.cls-1{fill:#42210b;}.cls-2{fill:#eacbc6;}.cls-3{fill:#db9c94;}.cls-4{fill:#c69c6d;}</style></defs><title>Kaylee blink</title><g id="Layer_3" data-name="Layer 3"><rect class="cls-1" x="592.81" y="927.96" width="48.77" height="43.29"/><rect class="cls-1" x="592.81" y="884.66" width="48.77" height="43.29"/><rect class="cls-1" x="592.81" y="798.08" width="48.77" height="43.29"/><rect class="cls-1" x="592.81" y="495.05" width="48.77" height="43.29"/><rect class="cls-1" x="592.81" y="451.76" width="48.77" height="43.29"/><rect class="cls-1" x="592.81" y="408.47" width="48.77" height="43.29"/><rect class="cls-1" x="592.81" y="365.18" width="48.77" height="43.29"/><rect class="cls-1" x="592.81" y="321.9" width="48.77" height="43.28"/><rect class="cls-1" x="544.05" y="841.37" width="48.76" height="43.29"/><rect class="cls-1" x="544.05" y="798.08" width="48.76" height="43.29"/><rect class="cls-1" x="544.05" y="754.79" width="48.76" height="43.29"/><rect class="cls-1" x="544.05" y="711.5" width="48.76" height="43.29"/><rect class="cls-1" x="544.05" y="668.22" width="48.76" height="43.28"/><rect class="cls-1" x="544.05" y="624.93" width="48.76" height="43.29"/><rect class="cls-1" x="544.05" y="581.64" width="48.76" height="43.29"/><rect class="cls-1" x="544.05" y="538.34" width="48.76" height="43.29"/><rect class="cls-1" x="544.05" y="495.05" width="48.76" height="43.29"/><rect class="cls-1" x="544.05" y="451.76" width="48.76" height="43.29"/><rect x="544.05" y="408.47" width="48.76" height="43.29"/><rect x="544.05" y="365.18" width="48.76" height="43.29"/><rect x="544.05" y="321.9" width="48.76" height="43.28"/><rect class="cls-1" x="544.05" y="278.61" width="48.76" height="43.29"/><rect class="cls-1" x="544.05" y="235.32" width="48.76" height="43.29"/><rect class="cls-1" x="544.05" y="192.02" width="48.76" height="43.29"/><rect class="cls-1" x="544.05" y="148.73" width="48.76" height="43.29"/><rect class="cls-1" x="544.05" y="105.44" width="48.76" height="43.29"/><rect class="cls-1" x="495.29" y="711.5" width="48.76" height="43.29"/><rect class="cls-1" x="495.29" y="668.22" width="48.76" height="43.28"/><rect class="cls-1" x="495.29" y="624.93" width="48.76" height="43.29"/><rect class="cls-1" x="495.29" y="581.64" width="48.76" height="43.29"/><rect class="cls-1" x="495.29" y="538.34" width="48.76" height="43.29"/><rect class="cls-1" x="495.29" y="495.05" width="48.76" height="43.29"/><rect class="cls-2" x="495.29" y="451.76" width="48.76" height="43.29"/><rect x="495.29" y="408.47" width="48.76" height="43.29"/><rect class="cls-2" x="495.29" y="365.18" width="48.76" height="43.29"/><rect x="495.29" y="321.9" width="48.76" height="43.28"/><rect class="cls-1" x="495.29" y="278.61" width="48.76" height="43.29"/><rect class="cls-1" x="495.29" y="235.32" width="48.76" height="43.29"/><rect class="cls-1" x="495.29" y="192.02" width="48.76" height="43.29"/><rect class="cls-1" x="495.29" y="148.73" width="48.76" height="43.29"/><rect class="cls-1" x="495.29" y="105.44" width="48.76" height="43.29"/><rect class="cls-1" x="495.29" y="62.15" width="48.76" height="43.29"/><rect class="cls-1" x="495.29" y="18.86" width="48.76" height="43.29"/><rect class="cls-2" x="446.53" y="581.64" width="48.76" height="43.29"/><rect class="cls-2" x="446.53" y="538.34" width="48.76" height="43.29"/><rect class="cls-2" x="446.53" y="495.05" width="48.76" height="43.29"/><rect class="cls-2" x="446.53" y="451.76" width="48.76" height="43.29"/><rect x="446.53" y="408.47" width="48.76" height="43.29"/><rect class="cls-2" x="446.53" y="365.18" width="48.76" height="43.29"/><rect x="446.53" y="321.9" width="48.76" height="43.28"/><rect class="cls-2" x="446.53" y="278.61" width="48.76" height="43.29"/><rect class="cls-2" x="446.53" y="235.32" width="48.76" height="43.29"/><rect class="cls-1" x="446.53" y="192.02" width="48.76" height="43.29"/><rect class="cls-1" x="446.53" y="148.73" width="48.76" height="43.29"/><rect class="cls-1" x="446.53" y="105.44" width="48.76" height="43.29"/><rect class="cls-1" x="446.53" y="62.15" width="48.76" height="43.29"/><rect class="cls-1" x="446.53" y="18.86" width="48.76" height="43.29"/><rect class="cls-2" x="397.78" y="668.22" width="48.76" height="43.28"/><rect class="cls-2" x="397.78" y="624.93" width="48.76" height="43.29"/><rect class="cls-2" x="397.78" y="581.64" width="48.76" height="43.29"/><rect class="cls-2" x="397.78" y="538.34" width="48.76" height="43.29"/><rect class="cls-2" x="397.78" y="495.05" width="48.76" height="43.29"/><rect class="cls-2" x="397.78" y="451.76" width="48.76" height="43.29"/><rect x="397.78" y="408.47" width="48.76" height="43.29"/><rect class="cls-2" x="397.78" y="365.18" width="48.76" height="43.29"/><rect x="397.78" y="321.9" width="48.76" height="43.28"/><rect class="cls-2" x="397.78" y="278.61" width="48.76" height="43.29"/><rect class="cls-2" x="397.78" y="235.32" width="48.76" height="43.29"/><rect class="cls-2" x="397.78" y="192.02" width="48.76" height="43.29"/><rect class="cls-2" x="397.78" y="148.73" width="48.76" height="43.29"/><rect class="cls-1" x="397.78" y="105.44" width="48.76" height="43.29"/><rect class="cls-1" x="397.78" y="62.15" width="48.76" height="43.29"/><rect class="cls-1" x="397.78" y="18.86" width="48.76" height="43.29"/><rect class="cls-2" x="349" y="668.22" width="48.77" height="43.28"/><rect class="cls-2" x="349" y="624.93" width="48.77" height="43.29"/><rect class="cls-3" x="349" y="581.64" width="48.77" height="43.29"/><rect class="cls-2" x="349" y="538.34" width="48.77" height="43.29"/><rect class="cls-4" x="349" y="495.05" width="48.77" height="43.29"/><rect class="cls-4" x="349" y="451.76" width="48.77" height="43.29"/><rect class="cls-4" x="349" y="408.47" width="48.77" height="43.29"/><rect x="349" y="365.18" width="48.77" height="43.29"/><rect class="cls-2" x="349" y="321.9" width="48.77" height="43.28"/><rect class="cls-2" x="349" y="278.61" width="48.77" height="43.29"/><rect class="cls-2" x="349" y="235.32" width="48.77" height="43.29"/><rect class="cls-2" x="349" y="192.02" width="48.77" height="43.29"/><rect class="cls-1" x="349" y="148.73" width="48.77" height="43.29"/><rect class="cls-1" x="349" y="105.44" width="48.77" height="43.29"/><rect class="cls-1" x="349" y="62.15" width="48.77" height="43.29"/><rect class="cls-1" x="349" y="18.86" width="48.77" height="43.29"/><rect class="cls-2" x="300.24" y="668.22" width="48.76" height="43.28"/><rect class="cls-2" x="300.24" y="624.93" width="48.76" height="43.29"/><rect class="cls-3" x="300.24" y="581.64" width="48.76" height="43.29"/><rect class="cls-2" x="300.24" y="538.34" width="48.76" height="43.29"/><rect class="cls-2" x="300.24" y="495.05" width="48.76" height="43.29"/><rect class="cls-2" x="300.24" y="451.76" width="48.76" height="43.29"/><rect class="cls-2" x="300.24" y="408.47" width="48.76" height="43.29"/><rect x="300.24" y="365.18" width="48.76" height="43.29"/><rect class="cls-2" x="300.24" y="321.9" width="48.76" height="43.28"/><rect class="cls-2" x="300.24" y="278.61" width="48.76" height="43.29"/><rect class="cls-2" x="300.24" y="235.32" width="48.76" height="43.29"/><rect class="cls-1" x="300.24" y="192.02" width="48.76" height="43.29"/><rect class="cls-1" x="300.24" y="148.73" width="48.76" height="43.29"/><rect class="cls-1" x="300.24" y="105.44" width="48.76" height="43.29"/><rect class="cls-1" x="300.24" y="62.15" width="48.76" height="43.29"/><rect class="cls-1" x="300.24" y="18.86" width="48.76" height="43.29"/><rect class="cls-2" x="251.49" y="668.22" width="48.76" height="43.28"/><rect class="cls-2" x="251.49" y="624.93" width="48.76" height="43.29"/><rect class="cls-3" x="251.49" y="581.64" width="48.76" height="43.29"/><rect class="cls-2" x="251.49" y="538.34" width="48.76" height="43.29"/><rect class="cls-2" x="251.49" y="495.05" width="48.76" height="43.29"/><rect class="cls-2" x="251.49" y="451.76" width="48.76" height="43.29"/><rect x="251.49" y="408.47" width="48.76" height="43.29"/><rect class="cls-2" x="251.49" y="365.18" width="48.76" height="43.29"/><rect x="251.49" y="321.9" width="48.76" height="43.28"/><rect class="cls-2" x="251.49" y="278.61" width="48.76" height="43.29"/><rect class="cls-1" x="251.49" y="235.32" width="48.76" height="43.29"/><rect class="cls-1" x="251.49" y="192.02" width="48.76" height="43.29"/><rect class="cls-1" x="251.49" y="148.73" width="48.76" height="43.29"/><rect class="cls-1" x="251.49" y="105.44" width="48.76" height="43.29"/><rect class="cls-1" x="251.49" y="62.15" width="48.76" height="43.29"/><rect class="cls-1" x="251.49" y="18.86" width="48.76" height="43.29"/><rect class="cls-2" x="202.73" y="624.93" width="48.76" height="43.29"/><rect class="cls-2" x="202.73" y="581.64" width="48.76" height="43.29"/><rect class="cls-2" x="202.73" y="538.34" width="48.76" height="43.29"/><rect class="cls-2" x="202.73" y="495.05" width="48.76" height="43.29"/><rect class="cls-2" x="202.73" y="451.76" width="48.76" height="43.29"/><rect x="202.73" y="408.47" width="48.76" height="43.29"/><rect class="cls-2" x="202.73" y="365.18" width="48.76" height="43.29"/><rect x="202.73" y="321.9" width="48.76" height="43.28"/><rect class="cls-1" x="202.73" y="278.61" width="48.76" height="43.29"/><rect class="cls-1" x="202.73" y="235.32" width="48.76" height="43.29"/><rect class="cls-1" x="202.73" y="192.02" width="48.76" height="43.29"/><rect class="cls-1" x="202.73" y="148.73" width="48.76" height="43.29"/><rect class="cls-1" x="202.73" y="105.44" width="48.76" height="43.29"/><rect class="cls-1" x="202.73" y="62.15" width="48.76" height="43.29"/><rect class="cls-1" x="202.73" y="18.86" width="48.76" height="43.29"/><rect class="cls-2" x="153.97" y="581.64" width="48.76" height="43.29"/><rect class="cls-2" x="153.97" y="538.34" width="48.76" height="43.29"/><rect class="cls-2" x="153.97" y="495.05" width="48.76" height="43.29"/><rect class="cls-2" x="153.97" y="451.76" width="48.76" height="43.29"/><rect x="153.97" y="408.47" width="48.76" height="43.29"/><rect class="cls-2" x="153.97" y="365.18" width="48.76" height="43.29"/><rect x="153.97" y="321.9" width="48.76" height="43.28"/><rect class="cls-1" x="153.97" y="278.61" width="48.76" height="43.29"/><rect class="cls-1" x="153.97" y="235.32" width="48.76" height="43.29"/><rect class="cls-1" x="153.97" y="192.02" width="48.76" height="43.29"/><rect class="cls-1" x="153.97" y="148.73" width="48.76" height="43.29"/><rect class="cls-1" x="153.97" y="105.44" width="48.76" height="43.29"/><rect class="cls-1" x="153.97" y="62.15" width="48.76" height="43.29"/><rect class="cls-1" x="105.2" y="754.79" width="48.77" height="43.29"/><rect class="cls-1" x="105.2" y="711.5" width="48.77" height="43.29"/><rect class="cls-1" x="105.2" y="668.22" width="48.77" height="43.28"/><rect class="cls-1" x="105.2" y="624.93" width="48.77" height="43.29"/><rect class="cls-1" x="105.2" y="581.64" width="48.77" height="43.29"/><rect class="cls-1" x="105.2" y="538.34" width="48.77" height="43.29"/><rect class="cls-1" x="105.2" y="495.05" width="48.77" height="43.29"/><rect class="cls-2" x="105.2" y="451.76" width="48.77" height="43.29"/><rect x="105.2" y="408.47" width="48.77" height="43.29"/><rect x="105.2" y="365.18" width="48.77" height="43.29"/><rect x="105.2" y="321.9" width="48.77" height="43.28"/><rect class="cls-1" x="105.2" y="278.61" width="48.77" height="43.29"/><rect class="cls-1" x="105.2" y="235.32" width="48.77" height="43.29"/><rect class="cls-1" x="105.2" y="192.02" width="48.77" height="43.29"/><rect class="cls-1" x="105.2" y="148.73" width="48.77" height="43.29"/><rect class="cls-1" x="105.2" y="105.44" width="48.77" height="43.29"/><rect class="cls-1" x="105.2" y="62.15" width="48.77" height="43.29"/><rect class="cls-1" x="56.44" y="841.37" width="48.76" height="43.29"/><rect class="cls-1" x="56.44" y="798.08" width="48.76" height="43.29"/><rect class="cls-1" x="56.44" y="754.79" width="48.76" height="43.29"/><rect class="cls-1" x="56.44" y="711.5" width="48.76" height="43.29"/><rect class="cls-1" x="56.44" y="668.22" width="48.76" height="43.28"/><rect class="cls-1" x="56.44" y="624.93" width="48.76" height="43.29"/><rect class="cls-1" x="56.44" y="581.64" width="48.76" height="43.29"/><rect class="cls-1" x="56.44" y="538.34" width="48.76" height="43.29"/><rect class="cls-1" x="56.44" y="495.05" width="48.76" height="43.29"/><rect class="cls-1" x="56.44" y="451.76" width="48.76" height="43.29"/><rect class="cls-1" x="56.44" y="408.47" width="48.76" height="43.29"/><rect class="cls-1" x="56.44" y="365.18" width="48.76" height="43.29"/><rect class="cls-1" x="56.44" y="321.9" width="48.76" height="43.28"/><rect class="cls-1" x="56.44" y="278.61" width="48.76" height="43.29"/><rect class="cls-1" x="56.44" y="235.32" width="48.76" height="43.29"/><rect class="cls-1" x="56.44" y="192.02" width="48.76" height="43.29"/><rect class="cls-1" x="56.44" y="148.73" width="48.76" height="43.29"/><rect class="cls-1" x="7.68" y="927.96" width="48.76" height="43.29"/><rect class="cls-1" x="7.68" y="884.66" width="48.76" height="43.29"/><rect class="cls-1" x="7.68" y="841.37" width="48.76" height="43.29"/><rect class="cls-1" x="7.68" y="798.08" width="48.76" height="43.29"/></g></svg>