<svg xmlns="http://www.w3.org/2000/svg" viewBox="0 0 549.85 715.69"><defs><style>.cls-1{fill:#926d5a;}.cls-2{fill:#f1dbcb;}.cls-3{fill:#cea28b;}</style></defs><title>Cloud blink</title><g id="Layer_3" data-name="Layer 3"><rect class="cls-1" x="479.67" y="378.92" width="52.06" height="46.22"/><rect class="cls-1" x="479.67" y="332.7" width="52.06" height="46.22"/><rect class="cls-1" x="479.67" y="194.05" width="52.06" height="46.21"/><rect class="cls-1" x="479.67" y="147.83" width="52.06" height="46.22"/><rect class="cls-1" x="427.6" y="425.14" width="52.07" height="46.22"/><rect class="cls-2" x="427.6" y="378.92" width="52.07" height="46.22"/><rect class="cls-2" x="427.6" y="332.7" width="52.07" height="46.22"/><rect class="cls-2" x="427.6" y="286.48" width="52.07" height="46.22"/><rect class="cls-2" x="427.6" y="240.26" width="52.07" height="46.22"/><rect class="cls-1" x="427.6" y="194.05" width="52.07" height="46.21"/><rect class="cls-1" x="427.6" y="147.83" width="52.07" height="46.22"/><rect class="cls-1" x="427.6" y="101.61" width="52.07" height="46.22"/><rect class="cls-1" x="427.6" y="55.39" width="52.07" height="46.22"/><rect class="cls-2" x="375.54" y="563.81" width="52.06" height="46.21"/><rect class="cls-2" x="375.54" y="517.59" width="52.06" height="46.22"/><rect class="cls-2" x="375.54" y="471.36" width="52.06" height="46.22"/><rect class="cls-2" x="375.54" y="425.14" width="52.06" height="46.22"/><rect class="cls-2" x="375.54" y="378.92" width="52.06" height="46.22"/><rect class="cls-2" x="375.54" y="332.7" width="52.06" height="46.22"/><rect class="cls-2" x="375.54" y="286.48" width="52.06" height="46.22"/><rect class="cls-2" x="375.54" y="240.26" width="52.06" height="46.22"/><rect class="cls-1" x="375.54" y="194.05" width="52.06" height="46.21"/><rect class="cls-1" x="375.54" y="147.83" width="52.06" height="46.22"/><rect class="cls-1" x="375.54" y="101.61" width="52.06" height="46.22"/><rect class="cls-1" x="375.54" y="55.39" width="52.06" height="46.22"/><rect class="cls-1" x="375.54" y="9.16" width="52.06" height="46.22"/><rect class="cls-2" x="323.48" y="610.02" width="52.06" height="46.22"/><rect class="cls-2" x="323.48" y="563.81" width="52.06" height="46.21"/><rect class="cls-2" x="323.48" y="517.59" width="52.06" height="46.22"/><rect class="cls-2" x="323.48" y="471.36" width="52.06" height="46.22"/><rect class="cls-2" x="323.48" y="425.14" width="52.06" height="46.22"/><rect class="cls-2" x="323.48" y="378.92" width="52.06" height="46.22"/><rect class="cls-2" x="323.48" y="332.7" width="52.06" height="46.22"/><rect class="cls-2" x="323.48" y="286.48" width="52.06" height="46.22"/><rect class="cls-2" x="323.48" y="240.26" width="52.06" height="46.22"/><rect class="cls-1" x="323.48" y="194.05" width="52.06" height="46.21"/><rect class="cls-1" x="323.48" y="147.83" width="52.06" height="46.22"/><rect class="cls-1" x="323.48" y="101.61" width="52.06" height="46.22"/><rect class="cls-1" x="323.48" y="55.39" width="52.06" height="46.22"/><rect class="cls-1" x="323.48" y="9.16" width="52.06" height="46.22"/><rect class="cls-2" x="271.42" y="656.24" width="52.06" height="46.22"/><rect class="cls-2" x="271.42" y="610.02" width="52.06" height="46.22"/><rect class="cls-3" x="271.42" y="563.81" width="52.06" height="46.21"/><rect class="cls-2" x="271.42" y="517.59" width="52.06" height="46.22"/><rect class="cls-1" x="271.42" y="471.36" width="52.06" height="46.22"/><rect class="cls-1" x="271.42" y="425.14" width="52.06" height="46.22"/><rect class="cls-1" x="271.42" y="378.92" width="52.06" height="46.22"/><rect class="cls-2" x="271.42" y="332.7" width="52.06" height="46.22"/><rect class="cls-2" x="271.42" y="286.48" width="52.06" height="46.22"/><rect class="cls-2" x="271.42" y="240.26" width="52.06" height="46.22"/><rect class="cls-1" x="271.42" y="194.05" width="52.06" height="46.21"/><rect class="cls-1" x="271.42" y="147.83" width="52.06" height="46.22"/><rect class="cls-1" x="271.42" y="101.61" width="52.06" height="46.22"/><rect class="cls-1" x="271.42" y="55.39" width="52.06" height="46.22"/><rect class="cls-1" x="271.42" y="9.16" width="52.06" height="46.22"/><rect class="cls-2" x="219.36" y="656.24" width="52.06" height="46.22"/><rect class="cls-2" x="219.36" y="610.02" width="52.06" height="46.22"/><rect class="cls-3" x="219.36" y="563.81" width="52.06" height="46.21"/><rect class="cls-2" x="219.36" y="517.59" width="52.06" height="46.22"/><rect class="cls-2" x="219.36" y="471.36" width="52.06" height="46.22"/><rect class="cls-2" x="219.36" y="425.14" width="52.06" height="46.22"/><rect class="cls-2" x="219.36" y="378.92" width="52.06" height="46.22"/><rect class="cls-2" x="219.36" y="332.7" width="52.06" height="46.22"/><rect class="cls-2" x="219.36" y="286.48" width="52.06" height="46.22"/><rect class="cls-2" x="219.36" y="240.26" width="52.06" height="46.22"/><rect class="cls-1" x="219.36" y="194.05" width="52.06" height="46.21"/><rect class="cls-1" x="219.36" y="147.83" width="52.06" height="46.22"/><rect class="cls-1" x="219.36" y="101.61" width="52.06" height="46.22"/><rect class="cls-1" x="219.36" y="55.39" width="52.06" height="46.22"/><rect class="cls-1" x="219.36" y="9.16" width="52.06" height="46.22"/><rect class="cls-2" x="167.29" y="656.24" width="52.07" height="46.22"/><rect class="cls-2" x="167.29" y="610.02" width="52.07" height="46.22"/><rect class="cls-3" x="167.29" y="563.81" width="52.07" height="46.21"/><rect class="cls-2" x="167.29" y="517.59" width="52.07" height="46.22"/><rect class="cls-2" x="167.29" y="471.36" width="52.07" height="46.22"/><rect class="cls-2" x="167.29" y="425.14" width="52.07" height="46.22"/><rect class="cls-2" x="167.29" y="378.92" width="52.07" height="46.22"/><rect class="cls-2" x="167.29" y="332.7" width="52.07" height="46.22"/><rect class="cls-2" x="167.29" y="286.48" width="52.07" height="46.22"/><rect class="cls-2" x="167.29" y="240.26" width="52.07" height="46.22"/><rect class="cls-2" x="167.29" y="194.05" width="52.07" height="46.21"/><rect class="cls-1" x="167.29" y="147.83" width="52.07" height="46.22"/><rect class="cls-1" x="167.29" y="101.61" width="52.07" height="46.22"/><rect class="cls-1" x="167.29" y="55.39" width="52.07" height="46.22"/><rect class="cls-1" x="167.29" y="9.16" width="52.07" height="46.22"/><rect class="cls-2" x="115.23" y="610.02" width="52.06" height="46.22"/><rect class="cls-2" x="115.23" y="563.81" width="52.06" height="46.21"/><rect class="cls-2" x="115.23" y="517.59" width="52.06" height="46.22"/><rect class="cls-2" x="115.23" y="471.36" width="52.06" height="46.22"/><rect class="cls-2" x="115.23" y="425.14" width="52.06" height="46.22"/><rect class="cls-2" x="115.23" y="378.92" width="52.06" height="46.22"/><rect class="cls-2" x="115.23" y="332.7" width="52.06" height="46.22"/><rect class="cls-2" x="115.23" y="286.48" width="52.06" height="46.22"/><rect class="cls-2" x="115.23" y="240.26" width="52.06" height="46.22"/><rect class="cls-2" x="115.23" y="194.05" width="52.06" height="46.21"/><rect class="cls-1" x="115.23" y="147.83" width="52.06" height="46.22"/><rect class="cls-1" x="115.23" y="101.61" width="52.06" height="46.22"/><rect class="cls-1" x="115.23" y="55.39" width="52.06" height="46.22"/><rect class="cls-1" x="115.23" y="9.16" width="52.06" height="46.22"/><rect class="cls-2" x="63.17" y="517.59" width="52.06" height="46.22"/><rect class="cls-2" x="63.17" y="471.36" width="52.06" height="46.22"/><rect class="cls-2" x="63.17" y="425.14" width="52.06" height="46.22"/><rect class="cls-2" x="63.17" y="378.92" width="52.06" height="46.22"/><rect class="cls-2" x="63.17" y="332.7" width="52.06" height="46.22"/><rect class="cls-2" x="63.17" y="286.48" width="52.06" height="46.22"/><rect class="cls-1" x="63.17" y="240.26" width="52.06" height="46.22"/><rect class="cls-1" x="63.17" y="194.05" width="52.06" height="46.21"/><rect class="cls-1" x="63.17" y="147.83" width="52.06" height="46.22"/><rect class="cls-1" x="63.17" y="101.61" width="52.06" height="46.22"/><rect class="cls-1" x="63.17" y="55.39" width="52.06" height="46.22"/><rect class="cls-1" x="63.17" y="9.16" width="52.06" height="46.22"/><rect class="cls-1" x="11.11" y="425.14" width="52.06" height="46.22"/><rect class="cls-1" x="11.11" y="378.92" width="52.06" height="46.22"/><rect class="cls-1" x="11.11" y="332.7" width="52.06" height="46.22"/><rect class="cls-1" x="11.11" y="286.48" width="52.06" height="46.22"/><rect class="cls-1" x="11.11" y="240.26" width="52.06" height="46.22"/><rect class="cls-1" x="11.11" y="194.05" width="52.06" height="46.21"/><rect class="cls-1" x="11.11" y="147.83" width="52.06" height="46.22"/><rect class="cls-1" x="11.11" y="101.61" width="52.06" height="46.22"/><rect class="cls-1" x="11.11" y="55.39" width="52.06" height="46.22"/></g></svg>