<svg xmlns="http://www.w3.org/2000/svg" viewBox="0 0 681.52 994.8"><defs><style>.cls-1{fill:#eacbc6;}.cls-2{fill:#42210b;}.cls-3{fill:#db9c94;}.cls-4{fill:#fff;}.cls-5{fill:#c69c6d;}</style></defs><title>Kaylee</title><g id="Layer_3" data-name="Layer 3"><rect class="cls-1" x="244.31" y="533.63" width="48.52" height="43.29"/><rect class="cls-2" x="535.42" y="620.21" width="48.52" height="43.29"/><rect class="cls-2" x="438.38" y="187.31" width="48.53" height="43.29"/><rect class="cls-1" x="341.34" y="317.18" width="48.52" height="43.29"/><rect class="cls-2" x="244.31" y="14.15" width="48.52" height="43.28"/><rect class="cls-1" x="147.27" y="576.92" width="48.53" height="43.29"/><rect class="cls-1" x="438.38" y="230.6" width="48.53" height="43.29"/><rect class="cls-1" x="147.27" y="533.63" width="48.53" height="43.29"/><rect class="cls-2" x="535.42" y="490.33" width="48.52" height="43.29"/><rect class="cls-2" x="1.72" y="836.65" width="48.52" height="43.29"/><rect class="cls-3" x="244.31" y="576.92" width="48.52" height="43.29"/><rect x="438.38" y="403.75" width="48.53" height="43.29"/><rect class="cls-2" x="486.9" y="100.72" width="48.52" height="43.29"/><rect class="cls-2" x="583.94" y="317.18" width="48.52" height="43.29"/><rect class="cls-2" x="389.86" y="100.72" width="48.52" height="43.29"/><rect class="cls-2" x="50.24" y="144.01" width="48.52" height="43.29"/><rect class="cls-4" x="438.38" y="360.47" width="48.53" height="43.28"/><rect class="cls-1" x="244.31" y="620.21" width="48.52" height="43.29"/><rect class="cls-1" x="341.34" y="663.5" width="48.52" height="43.29"/><rect class="cls-1" x="147.27" y="490.33" width="48.53" height="43.29"/><rect class="cls-2" x="535.42" y="533.63" width="48.52" height="43.29"/><rect class="cls-1" x="438.38" y="273.89" width="48.53" height="43.29"/><rect class="cls-2" x="535.42" y="576.92" width="48.52" height="43.29"/><rect class="cls-2" x="438.38" y="57.43" width="48.53" height="43.29"/><rect class="cls-2" x="50.24" y="836.65" width="48.52" height="43.29"/><rect class="cls-1" x="292.83" y="447.04" width="48.52" height="43.29"/><rect class="cls-1" x="244.31" y="490.33" width="48.52" height="43.29"/><rect class="cls-2" x="535.42" y="100.72" width="48.52" height="43.29"/><rect class="cls-2" x="389.86" y="14.15" width="48.52" height="43.28"/><rect class="cls-2" x="50.24" y="793.36" width="48.52" height="43.29"/><rect class="cls-2" x="486.9" y="14.15" width="48.52" height="43.28"/><rect class="cls-1" x="389.86" y="533.63" width="48.52" height="43.29"/><rect class="cls-2" x="486.9" y="533.63" width="48.52" height="43.29"/><rect class="cls-5" x="341.34" y="403.75" width="48.52" height="43.29"/><rect class="cls-2" x="583.94" y="360.47" width="48.52" height="43.28"/><rect class="cls-2" x="486.9" y="576.92" width="48.52" height="43.29"/><rect class="cls-1" x="341.34" y="187.31" width="48.52" height="43.29"/><rect class="cls-1" x="389.86" y="576.92" width="48.52" height="43.29"/><rect x="438.38" y="317.18" width="48.53" height="43.29"/><rect class="cls-2" x="195.8" y="144.01" width="48.52" height="43.29"/><rect class="cls-1" x="341.34" y="230.6" width="48.52" height="43.29"/><rect class="cls-1" x="389.86" y="620.21" width="48.52" height="43.29"/><rect class="cls-2" x="50.24" y="706.79" width="48.52" height="43.28"/><rect class="cls-1" x="341.34" y="273.89" width="48.52" height="43.29"/><rect class="cls-2" x="341.34" y="57.43" width="48.52" height="43.29"/><rect class="cls-2" x="583.94" y="403.75" width="48.52" height="43.29"/><rect class="cls-2" x="486.9" y="620.21" width="48.52" height="43.29"/><rect class="cls-2" x="535.42" y="750.07" width="48.52" height="43.29"/><rect class="cls-2" x="1.72" y="793.36" width="48.52" height="43.29"/><rect class="cls-2" x="244.31" y="100.72" width="48.52" height="43.29"/><rect class="cls-1" x="98.75" y="447.04" width="48.52" height="43.29"/><rect class="cls-2" x="486.9" y="490.33" width="48.52" height="43.29"/><rect class="cls-1" x="389.86" y="490.33" width="48.52" height="43.29"/><rect x="341.34" y="360.47" width="48.52" height="43.28"/><rect class="cls-2" x="147.27" y="100.72" width="48.53" height="43.29"/><rect class="cls-1" x="195.8" y="576.92" width="48.52" height="43.29"/><rect class="cls-1" x="292.83" y="317.18" width="48.52" height="43.29"/><rect class="cls-2" x="98.75" y="230.6" width="48.52" height="43.29"/><rect class="cls-1" x="389.86" y="144.01" width="48.52" height="43.29"/><rect class="cls-2" x="535.42" y="793.36" width="48.52" height="43.29"/><rect class="cls-2" x="98.75" y="187.31" width="48.52" height="43.29"/><rect class="cls-2" x="486.9" y="144.01" width="48.52" height="43.29"/><rect x="98.75" y="403.75" width="48.52" height="43.29"/><rect class="cls-2" x="195.8" y="14.15" width="48.52" height="43.28"/><rect class="cls-2" x="583.94" y="447.04" width="48.52" height="43.29"/><rect class="cls-1" x="195.8" y="533.63" width="48.52" height="43.29"/><rect class="cls-2" x="50.24" y="750.07" width="48.52" height="43.29"/><rect class="cls-1" x="292.83" y="663.5" width="48.52" height="43.29"/><rect class="cls-1" x="195.8" y="490.33" width="48.52" height="43.29"/><rect x="98.75" y="360.47" width="48.52" height="43.28"/><rect class="cls-2" x="1.72" y="879.95" width="48.52" height="43.29"/><rect class="cls-2" x="535.42" y="706.79" width="48.52" height="43.28"/><rect class="cls-2" x="583.94" y="923.24" width="48.52" height="43.29"/><rect class="cls-1" x="195.8" y="620.21" width="48.52" height="43.29"/><rect class="cls-5" x="341.34" y="447.04" width="48.52" height="43.29"/><rect class="cls-2" x="98.75" y="273.89" width="48.52" height="43.29"/><rect class="cls-2" x="98.75" y="57.43" width="48.52" height="43.29"/><rect class="cls-1" x="292.83" y="403.75" width="48.52" height="43.29"/><rect class="cls-2" x="244.31" y="144.01" width="48.52" height="43.29"/><rect class="cls-2" x="486.9" y="706.79" width="48.52" height="43.28"/><rect class="cls-2" x="50.24" y="620.21" width="48.52" height="43.29"/><rect class="cls-1" x="292.83" y="230.6" width="48.52" height="43.29"/><rect x="98.75" y="317.18" width="48.52" height="43.29"/><rect class="cls-2" x="147.27" y="144.01" width="48.53" height="43.29"/><rect class="cls-2" x="50.24" y="490.33" width="48.52" height="43.29"/><rect class="cls-2" x="292.83" y="187.31" width="48.52" height="43.29"/><rect class="cls-1" x="438.38" y="447.04" width="48.53" height="43.29"/><rect class="cls-2" x="50.24" y="533.63" width="48.52" height="43.29"/><rect class="cls-2" x="292.83" y="57.43" width="48.52" height="43.29"/><rect class="cls-1" x="292.83" y="273.89" width="48.52" height="43.29"/><rect class="cls-2" x="535.42" y="144.01" width="48.52" height="43.29"/><rect class="cls-2" x="195.8" y="100.72" width="48.52" height="43.29"/><rect x="292.83" y="360.47" width="48.52" height="43.28"/><rect class="cls-2" x="98.75" y="663.5" width="48.52" height="43.29"/><rect class="cls-2" x="50.24" y="576.92" width="48.52" height="43.29"/><rect class="cls-2" x="535.42" y="836.65" width="48.52" height="43.29"/><rect class="cls-2" x="50.24" y="317.18" width="48.52" height="43.29"/><rect class="cls-2" x="98.75" y="490.33" width="48.52" height="43.29"/><rect class="cls-4" x="195.8" y="360.47" width="48.52" height="43.28"/><rect class="cls-2" x="292.83" y="100.72" width="48.52" height="43.29"/><rect class="cls-2" x="195.8" y="273.89" width="48.52" height="43.29"/><rect class="cls-1" x="389.86" y="447.04" width="48.52" height="43.29"/><rect class="cls-2" x="195.8" y="57.43" width="48.52" height="43.29"/><rect class="cls-1" x="486.9" y="447.04" width="48.52" height="43.29"/><rect class="cls-2" x="98.75" y="620.21" width="48.52" height="43.29"/><rect class="cls-2" x="195.8" y="187.31" width="48.52" height="43.29"/><rect class="cls-2" x="50.24" y="663.5" width="48.52" height="43.29"/><rect class="cls-2" x="98.75" y="576.92" width="48.52" height="43.29"/><rect class="cls-2" x="341.34" y="144.01" width="48.52" height="43.29"/><rect class="cls-2" x="195.8" y="230.6" width="48.52" height="43.29"/><rect class="cls-2" x="98.75" y="533.63" width="48.52" height="43.29"/><rect x="195.8" y="403.75" width="48.52" height="43.29"/><rect class="cls-2" x="50.24" y="403.75" width="48.52" height="43.29"/><rect class="cls-1" x="147.27" y="447.04" width="48.53" height="43.29"/><rect class="cls-1" x="292.83" y="620.21" width="48.52" height="43.29"/><rect class="cls-2" x="50.24" y="230.6" width="48.52" height="43.29"/><rect class="cls-1" x="244.31" y="447.04" width="48.52" height="43.29"/><rect class="cls-2" x="98.75" y="100.72" width="48.52" height="43.29"/><rect class="cls-2" x="50.24" y="187.31" width="48.52" height="43.29"/><rect class="cls-1" x="292.83" y="490.33" width="48.52" height="43.29"/><rect class="cls-1" x="292.83" y="533.63" width="48.52" height="43.29"/><rect class="cls-2" x="583.94" y="793.36" width="48.52" height="43.29"/><rect class="cls-2" x="292.83" y="14.15" width="48.52" height="43.28"/><rect class="cls-2" x="50.24" y="273.89" width="48.52" height="43.29"/><rect class="cls-2" x="98.75" y="750.07" width="48.52" height="43.29"/><rect class="cls-2" x="50.24" y="360.47" width="48.52" height="43.28"/><rect class="cls-2" x="535.42" y="447.04" width="48.52" height="43.29"/><rect x="195.8" y="317.18" width="48.52" height="43.29"/><rect class="cls-3" x="292.83" y="576.92" width="48.52" height="43.29"/><rect class="cls-2" x="438.38" y="144.01" width="48.53" height="43.29"/><rect class="cls-1" x="438.38" y="490.33" width="48.53" height="43.29"/><rect class="cls-2" x="341.34" y="100.72" width="48.52" height="43.29"/><rect class="cls-4" x="147.27" y="360.47" width="48.53" height="43.28"/><rect class="cls-1" x="389.86" y="663.5" width="48.52" height="43.29"/><rect class="cls-2" x="244.31" y="57.43" width="48.52" height="43.29"/><rect class="cls-1" x="244.31" y="273.89" width="48.52" height="43.29"/><rect x="535.42" y="403.75" width="48.52" height="43.29"/><rect class="cls-2" x="486.9" y="663.5" width="48.52" height="43.29"/><rect class="cls-4" x="244.31" y="360.47" width="48.52" height="43.28"/><rect class="cls-2" x="535.42" y="187.31" width="48.52" height="43.29"/><rect class="cls-2" x="147.27" y="57.43" width="48.53" height="43.29"/><rect class="cls-2" x="147.27" y="273.89" width="48.53" height="43.29"/><rect class="cls-2" x="535.42" y="230.6" width="48.52" height="43.29"/><rect class="cls-2" x="147.27" y="230.6" width="48.53" height="43.29"/><rect class="cls-1" x="438.38" y="576.92" width="48.53" height="43.29"/><rect class="cls-2" x="1.72" y="923.24" width="48.52" height="43.29"/><rect x="244.31" y="403.75" width="48.52" height="43.29"/><rect class="cls-2" x="535.42" y="273.89" width="48.52" height="43.29"/><rect class="cls-2" x="292.83" y="144.01" width="48.52" height="43.29"/><rect class="cls-2" x="583.94" y="879.95" width="48.52" height="43.29"/><rect class="cls-2" x="147.27" y="187.31" width="48.53" height="43.29"/><rect x="486.9" y="317.18" width="48.52" height="43.29"/><rect x="389.86" y="317.18" width="48.52" height="43.29"/><rect class="cls-2" x="244.31" y="230.6" width="48.52" height="43.29"/><rect class="cls-2" x="98.75" y="706.79" width="48.52" height="43.28"/><rect x="147.27" y="403.75" width="48.53" height="43.29"/><rect class="cls-2" x="438.38" y="14.15" width="48.53" height="43.28"/><rect class="cls-2" x="244.31" y="187.31" width="48.52" height="43.29"/><rect x="535.42" y="360.47" width="48.52" height="43.28"/><rect class="cls-1" x="438.38" y="533.63" width="48.53" height="43.29"/><rect class="cls-2" x="50.24" y="447.04" width="48.52" height="43.29"/><rect class="cls-2" x="389.86" y="57.43" width="48.52" height="43.29"/><rect class="cls-2" x="486.9" y="273.89" width="48.52" height="43.29"/><rect class="cls-1" x="244.31" y="663.5" width="48.52" height="43.29"/><rect class="cls-1" x="341.34" y="620.21" width="48.52" height="43.29"/><rect class="cls-2" x="486.9" y="57.43" width="48.52" height="43.29"/><rect class="cls-1" x="195.8" y="447.04" width="48.52" height="43.29"/><rect class="cls-1" x="389.86" y="273.89" width="48.52" height="43.29"/><rect x="535.42" y="317.18" width="48.52" height="43.29"/><rect class="cls-2" x="438.38" y="100.72" width="48.53" height="43.29"/><rect class="cls-5" x="341.34" y="490.33" width="48.52" height="43.29"/><rect class="cls-4" x="486.9" y="360.47" width="48.52" height="43.28"/><rect class="cls-4" x="389.86" y="360.47" width="48.52" height="43.28"/><rect x="244.31" y="317.18" width="48.52" height="43.29"/><rect class="cls-2" x="341.34" y="14.15" width="48.52" height="43.28"/><rect x="389.86" y="403.75" width="48.52" height="43.29"/><rect class="cls-2" x="535.42" y="663.5" width="48.52" height="43.29"/><rect class="cls-1" x="341.34" y="533.63" width="48.52" height="43.29"/><rect x="486.9" y="403.75" width="48.52" height="43.29"/><rect class="cls-1" x="389.86" y="187.31" width="48.52" height="43.29"/><rect class="cls-3" x="341.34" y="576.92" width="48.52" height="43.29"/><rect class="cls-2" x="98.75" y="144.01" width="48.52" height="43.29"/><rect x="147.27" y="317.18" width="48.53" height="43.29"/><rect class="cls-2" x="486.9" y="187.31" width="48.52" height="43.29"/><rect class="cls-2" x="583.94" y="490.33" width="48.52" height="43.29"/><rect class="cls-1" x="389.86" y="230.6" width="48.52" height="43.29"/><rect class="cls-2" x="486.9" y="230.6" width="48.52" height="43.29"/></g></svg>